<svg width="805" height="510" viewBox="0 0 805 510" fill="none" xmlns="http://www.w3.org/2000/svg">
<path d="M34.788 15.8V41H30.18V33.98H23.952H23.448L18.768 41H13.836L19.236 33.224C17.484 32.576 16.128 31.556 15.168 30.164C14.232 28.748 13.764 27.044 13.764 25.052C13.764 23.132 14.196 21.476 15.06 20.084C15.924 18.692 17.148 17.636 18.732 16.916C20.316 16.172 22.176 15.8 24.312 15.8H34.788ZM24.456 19.76C22.536 19.76 21.06 20.204 20.028 21.092C19.02 21.98 18.516 23.276 18.516 24.98C18.516 26.636 19.008 27.92 19.992 28.832C20.976 29.72 22.404 30.164 24.276 30.164H30.18V19.76H24.456ZM49.3832 33.296H45.8912V41H41.3912V21.776H45.8912V29.552H49.4912L55.1792 21.776H60.0032L53.0192 31.028L60.4712 41H55.1792L49.3832 33.296ZM80.6992 21.776L71.6993 42.548C70.8593 44.636 69.8393 46.1 68.6393 46.94C67.4393 47.804 65.9873 48.236 64.2832 48.236C63.3233 48.236 62.3753 48.08 61.4393 47.768C60.5033 47.456 59.7352 47.024 59.1352 46.472L60.9353 43.16C61.3673 43.568 61.8713 43.892 62.4473 44.132C63.0473 44.372 63.6473 44.492 64.2473 44.492C65.0393 44.492 65.6873 44.288 66.1913 43.88C66.7193 43.472 67.1993 42.788 67.6313 41.828L67.9553 41.072L59.5673 21.776H64.2473L70.2953 35.996L76.3793 21.776H80.6992ZM99.1934 25.592H92.4614V41H87.9614V25.592H81.1934V21.776H99.1934V25.592ZM110.362 41.252C108.37 41.252 106.582 40.832 104.998 39.992C103.414 39.152 102.178 37.988 101.29 36.5C100.402 34.988 99.9578 33.284 99.9578 31.388C99.9578 29.492 100.402 27.8 101.29 26.312C102.178 24.824 103.402 23.66 104.962 22.82C106.546 21.98 108.346 21.56 110.362 21.56C112.258 21.56 113.914 21.944 115.33 22.712C116.77 23.48 117.85 24.584 118.57 26.024L115.114 28.04C114.562 27.152 113.866 26.492 113.026 26.06C112.21 25.604 111.31 25.376 110.326 25.376C108.646 25.376 107.254 25.928 106.15 27.032C105.046 28.112 104.494 29.564 104.494 31.388C104.494 33.212 105.034 34.676 106.114 35.78C107.218 36.86 108.622 37.4 110.326 37.4C111.31 37.4 112.21 37.184 113.026 36.752C113.866 36.296 114.562 35.624 115.114 34.736L118.57 36.752C117.826 38.192 116.734 39.308 115.294 40.1C113.878 40.868 112.234 41.252 110.362 41.252ZM130.524 33.296H127.032V41H122.532V21.776H127.032V29.552H130.632L136.32 21.776H141.144L134.16 31.028L141.612 41H136.32L130.524 33.296ZM172.339 19.76H159.847L159.883 41H155.275V15.8H172.375L172.339 19.76ZM185.079 41.36C182.511 41.36 180.195 40.808 178.131 39.704C176.067 38.576 174.447 37.028 173.271 35.06C172.095 33.068 171.507 30.848 171.507 28.4C171.507 25.952 172.095 23.744 173.271 21.776C174.447 19.784 176.067 18.236 178.131 17.132C180.195 16.004 182.511 15.44 185.079 15.44C187.647 15.44 189.963 16.004 192.027 17.132C194.091 18.236 195.711 19.772 196.887 21.74C198.063 23.708 198.651 25.928 198.651 28.4C198.651 30.872 198.063 33.092 196.887 35.06C195.711 37.028 194.091 38.576 192.027 39.704C189.963 40.808 187.647 41.36 185.079 41.36ZM185.079 37.256C186.759 37.256 188.271 36.884 189.615 36.14C190.959 35.372 192.015 34.316 192.783 32.972C193.551 31.604 193.935 30.08 193.935 28.4C193.935 26.72 193.551 25.208 192.783 23.864C192.015 22.496 190.959 21.44 189.615 20.696C188.271 19.928 186.759 19.544 185.079 19.544C183.399 19.544 181.887 19.928 180.543 20.696C179.199 21.44 178.143 22.496 177.375 23.864C176.607 25.208 176.223 26.72 176.223 28.4C176.223 30.08 176.607 31.604 177.375 32.972C178.143 34.316 179.199 35.372 180.543 36.14C181.887 36.884 183.399 37.256 185.079 37.256Z" fill="#2C2B2C"/>
<path d="M29.28 95.2V112H26.16V104.8H17.472V112H14.352V95.2H17.472V102.136H26.16V95.2H29.28ZM38.4326 99.04C40.3206 99.04 41.7606 99.496 42.7526 100.408C43.7606 101.304 44.2646 102.664 44.2646 104.488V112H41.4326V110.44C41.0646 111 40.5366 111.432 39.8486 111.736C39.1766 112.024 38.3606 112.168 37.4006 112.168C36.4406 112.168 35.6006 112.008 34.8806 111.688C34.1606 111.352 33.6006 110.896 33.2006 110.32C32.8166 109.728 32.6246 109.064 32.6246 108.328C32.6246 107.176 33.0486 106.256 33.8966 105.568C34.7606 104.864 36.1126 104.512 37.9526 104.512H41.2646V104.32C41.2646 103.424 40.9926 102.736 40.4486 102.256C39.9206 101.776 39.1286 101.536 38.0726 101.536C37.3526 101.536 36.6406 101.648 35.9366 101.872C35.2486 102.096 34.6646 102.408 34.1846 102.808L33.0086 100.624C33.6806 100.112 34.4886 99.72 35.4326 99.448C36.3766 99.176 37.3766 99.04 38.4326 99.04ZM38.0246 109.984C38.7766 109.984 39.4406 109.816 40.0166 109.48C40.6086 109.128 41.0246 108.632 41.2646 107.992V106.504H38.1686C36.4406 106.504 35.5766 107.072 35.5766 108.208C35.5766 108.752 35.7926 109.184 36.2246 109.504C36.6566 109.824 37.2566 109.984 38.0246 109.984ZM53.8089 112.168C52.4809 112.168 51.2889 111.888 50.2329 111.328C49.1769 110.768 48.3529 109.992 47.7609 109C47.1689 107.992 46.8729 106.856 46.8729 105.592C46.8729 104.328 47.1689 103.2 47.7609 102.208C48.3529 101.216 49.1689 100.44 50.2089 99.88C51.2649 99.32 52.4649 99.04 53.8089 99.04C55.0729 99.04 56.1769 99.296 57.1209 99.808C58.0809 100.32 58.8009 101.056 59.2809 102.016L56.9769 103.36C56.6089 102.768 56.1449 102.328 55.5849 102.04C55.0409 101.736 54.4409 101.584 53.7849 101.584C52.6649 101.584 51.7369 101.952 51.0009 102.688C50.2649 103.408 49.8969 104.376 49.8969 105.592C49.8969 106.808 50.2569 107.784 50.9769 108.52C51.7129 109.24 52.6489 109.6 53.7849 109.6C54.4409 109.6 55.0409 109.456 55.5849 109.168C56.1449 108.864 56.6089 108.416 56.9769 107.824L59.2809 109.168C58.7849 110.128 58.0569 110.872 57.0969 111.4C56.1529 111.912 55.0569 112.168 53.8089 112.168ZM73.7348 105.664C73.7348 105.872 73.7188 106.168 73.6868 106.552H63.6308C63.8068 107.496 64.2628 108.248 64.9988 108.808C65.7508 109.352 66.6788 109.624 67.7828 109.624C69.1908 109.624 70.3508 109.16 71.2628 108.232L72.8708 110.08C72.2948 110.768 71.5668 111.288 70.6868 111.64C69.8068 111.992 68.8148 112.168 67.7108 112.168C66.3028 112.168 65.0628 111.888 63.9908 111.328C62.9188 110.768 62.0868 109.992 61.4948 109C60.9188 107.992 60.6308 106.856 60.6308 105.592C60.6308 104.344 60.9108 103.224 61.4708 102.232C62.0468 101.224 62.8388 100.44 63.8468 99.88C64.8548 99.32 65.9908 99.04 67.2548 99.04C68.5028 99.04 69.6148 99.32 70.5908 99.88C71.5828 100.424 72.3508 101.2 72.8948 102.208C73.4548 103.2 73.7348 104.352 73.7348 105.664ZM67.2548 101.44C66.2948 101.44 65.4788 101.728 64.8068 102.304C64.1508 102.864 63.7508 103.616 63.6068 104.56H70.8788C70.7508 103.632 70.3588 102.88 69.7028 102.304C69.0468 101.728 68.2308 101.44 67.2548 101.44ZM88.4679 99.184V112H85.4679V101.728H80.6679L80.5479 104.272C80.4679 105.968 80.3079 107.392 80.0679 108.544C79.8439 109.68 79.4519 110.584 78.8919 111.256C78.3479 111.912 77.5959 112.24 76.6359 112.24C76.1879 112.24 75.6359 112.152 74.9799 111.976L75.1239 109.456C75.3479 109.504 75.5399 109.528 75.6999 109.528C76.3079 109.528 76.7639 109.288 77.0679 108.808C77.3719 108.312 77.5639 107.728 77.6439 107.056C77.7399 106.368 77.8199 105.392 77.8839 104.128L78.0999 99.184H88.4679ZM104.508 105.664C104.508 105.872 104.492 106.168 104.46 106.552H94.4042C94.5802 107.496 95.0362 108.248 95.7722 108.808C96.5242 109.352 97.4522 109.624 98.5562 109.624C99.9642 109.624 101.124 109.16 102.036 108.232L103.644 110.08C103.068 110.768 102.34 111.288 101.46 111.64C100.58 111.992 99.5882 112.168 98.4842 112.168C97.0762 112.168 95.8362 111.888 94.7642 111.328C93.6922 110.768 92.8602 109.992 92.2682 109C91.6922 107.992 91.4042 106.856 91.4042 105.592C91.4042 104.344 91.6842 103.224 92.2442 102.232C92.8202 101.224 93.6122 100.44 94.6202 99.88C95.6282 99.32 96.7642 99.04 98.0282 99.04C99.2762 99.04 100.388 99.32 101.364 99.88C102.356 100.424 103.124 101.2 103.668 102.208C104.228 103.2 104.508 104.352 104.508 105.664ZM98.0282 101.44C97.0682 101.44 96.2522 101.728 95.5802 102.304C94.9242 102.864 94.5242 103.616 94.3802 104.56H101.652C101.524 103.632 101.132 102.88 100.476 102.304C99.8202 101.728 99.0042 101.44 98.0282 101.44ZM107.789 99.184H110.789V104.392H117.245V99.184H120.245V112H117.245V106.936H110.789V112H107.789V99.184ZM124.266 99.184H127.266V107.632L134.346 99.184H137.082V112H134.082V103.552L127.026 112H124.266V99.184ZM153.118 105.664C153.118 105.872 153.102 106.168 153.07 106.552H143.014C143.19 107.496 143.646 108.248 144.382 108.808C145.134 109.352 146.062 109.624 147.166 109.624C148.574 109.624 149.734 109.16 150.646 108.232L152.254 110.08C151.678 110.768 150.95 111.288 150.07 111.64C149.19 111.992 148.198 112.168 147.094 112.168C145.686 112.168 144.446 111.888 143.374 111.328C142.302 110.768 141.47 109.992 140.878 109C140.302 107.992 140.014 106.856 140.014 105.592C140.014 104.344 140.294 103.224 140.854 102.232C141.43 101.224 142.222 100.44 143.23 99.88C144.238 99.32 145.374 99.04 146.638 99.04C147.886 99.04 148.998 99.32 149.974 99.88C150.966 100.424 151.734 101.2 152.278 102.208C152.838 103.2 153.118 104.352 153.118 105.664ZM146.638 101.44C145.678 101.44 144.862 101.728 144.19 102.304C143.534 102.864 143.134 103.616 142.99 104.56H150.262C150.134 103.632 149.742 102.88 149.086 102.304C148.43 101.728 147.614 101.44 146.638 101.44Z" fill="#2C2B2C"/>
<path d="M202.584 102.256C204.232 102.416 205.488 102.928 206.352 103.792C207.216 104.64 207.648 105.728 207.648 107.056C207.648 108.016 207.408 108.888 206.928 109.672C206.448 110.44 205.728 111.056 204.768 111.52C203.824 111.968 202.664 112.192 201.288 112.192C200.088 112.192 198.936 112.016 197.832 111.664C196.728 111.296 195.824 110.792 195.12 110.152L196.224 108.256C196.8 108.8 197.536 109.24 198.432 109.576C199.328 109.896 200.28 110.056 201.288 110.056C202.536 110.056 203.504 109.792 204.192 109.264C204.896 108.736 205.248 108.008 205.248 107.08C205.248 106.152 204.904 105.432 204.216 104.92C203.528 104.408 202.488 104.152 201.096 104.152H199.752V102.472L203.976 97.288H195.888V95.2H206.976V96.832L202.584 102.256ZM221.577 109.912V112H209.505V110.368L216.345 103.768C217.177 102.968 217.737 102.28 218.025 101.704C218.313 101.112 218.457 100.52 218.457 99.928C218.457 99.048 218.145 98.368 217.521 97.888C216.913 97.392 216.033 97.144 214.881 97.144C213.025 97.144 211.593 97.752 210.585 98.968L208.953 97.552C209.609 96.752 210.465 96.128 211.521 95.68C212.593 95.232 213.785 95.008 215.097 95.008C216.857 95.008 218.257 95.432 219.297 96.28C220.337 97.112 220.857 98.248 220.857 99.688C220.857 100.584 220.665 101.432 220.281 102.232C219.897 103.032 219.169 103.944 218.097 104.968L212.961 109.912H221.577ZM235.358 109.912V112H223.286V110.368L230.126 103.768C230.958 102.968 231.518 102.28 231.806 101.704C232.094 101.112 232.238 100.52 232.238 99.928C232.238 99.048 231.926 98.368 231.302 97.888C230.694 97.392 229.814 97.144 228.662 97.144C226.806 97.144 225.374 97.752 224.366 98.968L222.734 97.552C223.39 96.752 224.246 96.128 225.302 95.68C226.374 95.232 227.566 95.008 228.878 95.008C230.638 95.008 232.038 95.432 233.078 96.28C234.118 97.112 234.638 98.248 234.638 99.688C234.638 100.584 234.446 101.432 234.062 102.232C233.678 103.032 232.95 103.944 231.878 104.968L226.742 109.912H235.358ZM249.225 95.008C251.481 95.008 253.217 95.736 254.433 97.192C255.665 98.648 256.281 100.712 256.281 103.384C256.281 105.256 255.945 106.856 255.273 108.184C254.617 109.496 253.689 110.496 252.489 111.184C251.305 111.856 249.921 112.192 248.337 112.192C247.521 112.192 246.753 112.112 246.033 111.952C245.313 111.776 244.689 111.528 244.161 111.208L245.073 109.336C245.889 109.864 246.969 110.128 248.313 110.128C250.057 110.128 251.417 109.592 252.393 108.52C253.385 107.432 253.881 105.856 253.881 103.792V103.192C253.401 103.912 252.737 104.464 251.889 104.848C251.041 105.216 250.089 105.4 249.033 105.4C247.929 105.4 246.937 105.192 246.057 104.776C245.193 104.36 244.513 103.768 244.017 103C243.537 102.216 243.297 101.32 243.297 100.312C243.297 99.256 243.553 98.328 244.065 97.528C244.593 96.728 245.305 96.112 246.201 95.68C247.097 95.232 248.105 95.008 249.225 95.008ZM249.441 103.456C250.193 103.456 250.865 103.312 251.457 103.024C252.049 102.736 252.505 102.344 252.825 101.848C253.161 101.352 253.329 100.8 253.329 100.192C253.329 99.6 253.169 99.064 252.849 98.584C252.545 98.088 252.089 97.696 251.481 97.408C250.889 97.104 250.169 96.952 249.321 96.952C248.217 96.952 247.321 97.248 246.633 97.84C245.961 98.432 245.625 99.224 245.625 100.216C245.625 101.208 245.969 102 246.657 102.592C247.345 103.168 248.273 103.456 249.441 103.456ZM268.862 103.192C269.822 103.56 270.558 104.088 271.07 104.776C271.582 105.464 271.838 106.288 271.838 107.248C271.838 108.256 271.566 109.136 271.022 109.888C270.478 110.624 269.702 111.192 268.694 111.592C267.686 111.992 266.502 112.192 265.142 112.192C263.798 112.192 262.622 111.992 261.614 111.592C260.622 111.192 259.854 110.624 259.31 109.888C258.766 109.136 258.494 108.256 258.494 107.248C258.494 106.288 258.742 105.464 259.238 104.776C259.75 104.088 260.486 103.56 261.446 103.192C260.678 102.824 260.094 102.336 259.694 101.728C259.294 101.12 259.094 100.4 259.094 99.568C259.094 98.64 259.342 97.832 259.838 97.144C260.35 96.456 261.062 95.928 261.974 95.56C262.886 95.192 263.942 95.008 265.142 95.008C266.358 95.008 267.422 95.192 268.334 95.56C269.262 95.928 269.974 96.456 270.47 97.144C270.982 97.832 271.238 98.64 271.238 99.568C271.238 100.384 271.03 101.104 270.614 101.728C270.214 102.336 269.63 102.824 268.862 103.192ZM265.142 96.952C264.006 96.952 263.11 97.2 262.454 97.696C261.798 98.176 261.47 98.832 261.47 99.664C261.47 100.496 261.79 101.152 262.43 101.632C263.086 102.112 263.99 102.352 265.142 102.352C266.31 102.352 267.222 102.112 267.878 101.632C268.55 101.152 268.886 100.496 268.886 99.664C268.886 98.832 268.542 98.176 267.854 97.696C267.182 97.2 266.278 96.952 265.142 96.952ZM265.142 110.248C266.47 110.248 267.518 109.976 268.286 109.432C269.054 108.872 269.438 108.12 269.438 107.176C269.438 106.248 269.054 105.52 268.286 104.992C267.518 104.448 266.47 104.176 265.142 104.176C263.814 104.176 262.774 104.448 262.022 104.992C261.27 105.52 260.894 106.248 260.894 107.176C260.894 108.12 261.27 108.872 262.022 109.432C262.774 109.976 263.814 110.248 265.142 110.248ZM286.275 95.2V96.832L279.483 112H276.939L283.587 97.288H275.907V100.288H273.603V95.2H286.275Z" fill="#2C2B2C"/>
<rect x="10" y="179" width="783" height="54" rx="12" fill="white" stroke="#E8E8E8" stroke-width="4"/>
<path d="M735.667 201L749 214.333L762.333 201" stroke="#2C2B2C" stroke-width="2.5" stroke-linecap="round" stroke-linejoin="round"/>
<path d="M60.95 198V219H57.98V200.61H53.24V198H60.95ZM83.8135 213.84H79.8235V219H76.9135V213.84H65.2435V211.74L75.9835 198H79.2235L68.9335 211.26H77.0035V206.7H79.8235V211.26H83.8135V213.84ZM88.1778 219.18C87.6178 219.18 87.1378 218.99 86.7378 218.61C86.3378 218.21 86.1378 217.71 86.1378 217.11C86.1378 216.53 86.3378 216.05 86.7378 215.67C87.1378 215.27 87.6178 215.07 88.1778 215.07C88.7378 215.07 89.2078 215.26 89.5878 215.64C89.9678 216.02 90.1578 216.51 90.1578 217.11C90.1578 217.71 89.9578 218.21 89.5578 218.61C89.1778 218.99 88.7178 219.18 88.1778 219.18ZM112.271 219.24C110.171 219.24 108.271 218.78 106.571 217.86C104.891 216.92 103.571 215.64 102.611 214.02C101.651 212.38 101.171 210.54 101.171 208.5C101.171 206.46 101.651 204.63 102.611 203.01C103.571 201.37 104.901 200.09 106.601 199.17C108.301 198.23 110.201 197.76 112.301 197.76C113.941 197.76 115.441 198.04 116.801 198.6C118.161 199.14 119.321 199.95 120.281 201.03L118.331 202.92C116.751 201.26 114.781 200.43 112.421 200.43C110.861 200.43 109.451 200.78 108.191 201.48C106.931 202.18 105.941 203.15 105.221 204.39C104.521 205.61 104.171 206.98 104.171 208.5C104.171 210.02 104.521 211.4 105.221 212.64C105.941 213.86 106.931 214.82 108.191 215.52C109.451 216.22 110.861 216.57 112.421 216.57C114.761 216.57 116.731 215.73 118.331 214.05L120.281 215.94C119.321 217.02 118.151 217.84 116.771 218.4C115.411 218.96 113.911 219.24 112.271 219.24ZM137.631 211.14C137.631 211.36 137.611 211.65 137.571 212.01H124.671C124.851 213.41 125.461 214.54 126.501 215.4C127.561 216.24 128.871 216.66 130.431 216.66C132.331 216.66 133.861 216.02 135.021 214.74L136.611 216.6C135.891 217.44 134.991 218.08 133.911 218.52C132.851 218.96 131.661 219.18 130.341 219.18C128.661 219.18 127.171 218.84 125.871 218.16C124.571 217.46 123.561 216.49 122.841 215.25C122.141 214.01 121.791 212.61 121.791 211.05C121.791 209.51 122.131 208.12 122.811 206.88C123.511 205.64 124.461 204.68 125.661 204C126.881 203.3 128.251 202.95 129.771 202.95C131.291 202.95 132.641 203.3 133.821 204C135.021 204.68 135.951 205.64 136.611 206.88C137.291 208.12 137.631 209.54 137.631 211.14ZM129.771 205.38C128.391 205.38 127.231 205.8 126.291 206.64C125.371 207.48 124.831 208.58 124.671 209.94H134.871C134.711 208.6 134.161 207.51 133.221 206.67C132.301 205.81 131.151 205.38 129.771 205.38ZM155.485 203.1V219H152.605V205.62H145.765L145.585 209.16C145.485 211.3 145.295 213.09 145.015 214.53C144.735 215.95 144.275 217.09 143.635 217.95C142.995 218.81 142.105 219.24 140.965 219.24C140.445 219.24 139.855 219.15 139.195 218.97L139.375 216.54C139.635 216.6 139.875 216.63 140.095 216.63C140.895 216.63 141.495 216.28 141.895 215.58C142.295 214.88 142.555 214.05 142.675 213.09C142.795 212.13 142.905 210.76 143.005 208.98L143.275 203.1H155.485ZM168.404 208.5C170.424 208.52 171.964 208.98 173.024 209.88C174.084 210.78 174.614 212.05 174.614 213.69C174.614 215.41 174.034 216.74 172.874 217.68C171.734 218.6 170.094 219.05 167.954 219.03L161.054 219V203.1H163.934V208.47L168.404 208.5ZM167.714 216.84C169.014 216.86 169.994 216.6 170.654 216.06C171.334 215.52 171.674 214.72 171.674 213.66C171.674 212.62 171.344 211.86 170.684 211.38C170.044 210.9 169.054 210.65 167.714 210.63L163.934 210.57V216.81L167.714 216.84ZM185.24 219.18C183.62 219.18 182.17 218.83 180.89 218.13C179.63 217.43 178.64 216.47 177.92 215.25C177.2 214.01 176.84 212.61 176.84 211.05C176.84 209.49 177.2 208.1 177.92 206.88C178.64 205.64 179.63 204.68 180.89 204C182.17 203.3 183.62 202.95 185.24 202.95C186.68 202.95 187.96 203.24 189.08 203.82C190.22 204.4 191.1 205.24 191.72 206.34L189.53 207.75C189.03 206.99 188.41 206.42 187.67 206.04C186.93 205.66 186.11 205.47 185.21 205.47C184.17 205.47 183.23 205.7 182.39 206.16C181.57 206.62 180.92 207.28 180.44 208.14C179.98 208.98 179.75 209.95 179.75 211.05C179.75 212.17 179.98 213.16 180.44 214.02C180.92 214.86 181.57 215.51 182.39 215.97C183.23 216.43 184.17 216.66 185.21 216.66C186.11 216.66 186.93 216.47 187.67 216.09C188.41 215.71 189.03 215.14 189.53 214.38L191.72 215.76C191.1 216.86 190.22 217.71 189.08 218.31C187.96 218.89 186.68 219.18 185.24 219.18ZM201.628 212.28H198.328V219H195.448V203.1H198.328V209.82H201.688L206.848 203.1H209.938L203.908 210.75L210.358 219H206.968L201.628 212.28ZM219.661 219.18C218.081 219.18 216.661 218.83 215.401 218.13C214.141 217.43 213.151 216.47 212.431 215.25C211.731 214.01 211.381 212.61 211.381 211.05C211.381 209.49 211.731 208.1 212.431 206.88C213.151 205.64 214.141 204.68 215.401 204C216.661 203.3 218.081 202.95 219.661 202.95C221.241 202.95 222.651 203.3 223.891 204C225.151 204.68 226.131 205.64 226.831 206.88C227.551 208.1 227.911 209.49 227.911 211.05C227.911 212.61 227.551 214.01 226.831 215.25C226.131 216.47 225.151 217.43 223.891 218.13C222.651 218.83 221.241 219.18 219.661 219.18ZM219.661 216.66C220.681 216.66 221.591 216.43 222.391 215.97C223.211 215.49 223.851 214.83 224.311 213.99C224.771 213.13 225.001 212.15 225.001 211.05C225.001 209.95 224.771 208.98 224.311 208.14C223.851 207.28 223.211 206.62 222.391 206.16C221.591 205.7 220.681 205.47 219.661 205.47C218.641 205.47 217.721 205.7 216.901 206.16C216.101 206.62 215.461 207.28 214.981 208.14C214.521 208.98 214.291 209.95 214.291 211.05C214.291 212.15 214.521 213.13 214.981 213.99C215.461 214.83 216.101 215.49 216.901 215.97C217.721 216.43 218.641 216.66 219.661 216.66ZM246.439 211.14C246.439 211.36 246.419 211.65 246.379 212.01H233.479C233.659 213.41 234.269 214.54 235.309 215.4C236.369 216.24 237.679 216.66 239.239 216.66C241.139 216.66 242.669 216.02 243.829 214.74L245.419 216.6C244.699 217.44 243.799 218.08 242.719 218.52C241.659 218.96 240.469 219.18 239.149 219.18C237.469 219.18 235.979 218.84 234.679 218.16C233.379 217.46 232.369 216.49 231.649 215.25C230.949 214.01 230.599 212.61 230.599 211.05C230.599 209.51 230.939 208.12 231.619 206.88C232.319 205.64 233.269 204.68 234.469 204C235.689 203.3 237.059 202.95 238.579 202.95C240.099 202.95 241.449 203.3 242.629 204C243.829 204.68 244.759 205.64 245.419 206.88C246.099 208.12 246.439 209.54 246.439 211.14ZM238.579 205.38C237.199 205.38 236.039 205.8 235.099 206.64C234.179 207.48 233.639 208.58 233.479 209.94H243.679C243.519 208.6 242.969 207.51 242.029 206.67C241.109 205.81 239.959 205.38 238.579 205.38ZM268.894 219L264.304 212.91L259.654 219H256.444L262.714 210.87L256.744 203.1H259.954L264.334 208.83L268.684 203.1H271.834L265.834 210.87L272.164 219H268.894ZM281.477 219.18C279.897 219.18 278.477 218.83 277.217 218.13C275.957 217.43 274.967 216.47 274.247 215.25C273.547 214.01 273.197 212.61 273.197 211.05C273.197 209.49 273.547 208.1 274.247 206.88C274.967 205.64 275.957 204.68 277.217 204C278.477 203.3 279.897 202.95 281.477 202.95C283.057 202.95 284.467 203.3 285.707 204C286.967 204.68 287.947 205.64 288.647 206.88C289.367 208.1 289.727 209.49 289.727 211.05C289.727 212.61 289.367 214.01 288.647 215.25C287.947 216.47 286.967 217.43 285.707 218.13C284.467 218.83 283.057 219.18 281.477 219.18ZM281.477 216.66C282.497 216.66 283.407 216.43 284.207 215.97C285.027 215.49 285.667 214.83 286.127 213.99C286.587 213.13 286.817 212.15 286.817 211.05C286.817 209.95 286.587 208.98 286.127 208.14C285.667 207.28 285.027 206.62 284.207 206.16C283.407 205.7 282.497 205.47 281.477 205.47C280.457 205.47 279.537 205.7 278.717 206.16C277.917 206.62 277.277 207.28 276.797 208.14C276.337 208.98 276.107 209.95 276.107 211.05C276.107 212.15 276.337 213.13 276.797 213.99C277.277 214.83 277.917 215.49 278.717 215.97C279.537 216.43 280.457 216.66 281.477 216.66ZM302.32 210.72C303.38 211 304.2 211.45 304.78 212.07C305.36 212.69 305.65 213.46 305.65 214.38C305.65 215.32 305.33 216.16 304.69 216.9C304.05 217.62 303.16 218.19 302.02 218.61C300.9 219.01 299.64 219.21 298.24 219.21C297.06 219.21 295.9 219.06 294.76 218.76C293.64 218.44 292.64 217.99 291.76 217.41L292.63 215.22C293.39 215.7 294.26 216.08 295.24 216.36C296.22 216.62 297.21 216.75 298.21 216.75C299.57 216.75 300.65 216.52 301.45 216.06C302.27 215.58 302.68 214.94 302.68 214.14C302.68 213.4 302.35 212.83 301.69 212.43C301.05 212.03 300.14 211.83 298.96 211.83H296.05V209.76H298.75C299.83 209.76 300.68 209.57 301.3 209.19C301.92 208.81 302.23 208.29 302.23 207.63C302.23 206.91 301.86 206.35 301.12 205.95C300.4 205.55 299.42 205.35 298.18 205.35C296.6 205.35 294.93 205.76 293.17 206.58L292.39 204.36C294.33 203.38 296.36 202.89 298.48 202.89C299.76 202.89 300.91 203.07 301.93 203.43C302.95 203.79 303.75 204.3 304.33 204.96C304.91 205.62 305.2 206.37 305.2 207.21C305.2 207.99 304.94 208.69 304.42 209.31C303.9 209.93 303.2 210.4 302.32 210.72ZM322.778 203.1V219H320.198V213.96H315.578H315.248L311.768 219H308.678L312.548 213.57C311.348 213.21 310.428 212.62 309.788 211.8C309.148 210.96 308.828 209.92 308.828 208.68C308.828 206.86 309.448 205.48 310.688 204.54C311.928 203.58 313.638 203.1 315.818 203.1H322.778ZM311.768 208.77C311.768 209.83 312.098 210.62 312.758 211.14C313.438 211.64 314.448 211.89 315.788 211.89H320.198V205.62H315.908C313.148 205.62 311.768 206.67 311.768 208.77ZM328.397 203.1H331.277V214.68L341.027 203.1H343.637V219H340.757V207.42L331.037 219H328.397V203.1ZM335.837 201.03C334.357 201.03 333.207 200.68 332.387 199.98C331.567 199.26 331.147 198.23 331.127 196.89H333.077C333.097 197.63 333.347 198.23 333.827 198.69C334.327 199.13 334.987 199.35 335.807 199.35C336.627 199.35 337.287 199.13 337.787 198.69C338.287 198.23 338.547 197.63 338.567 196.89H340.577C340.557 198.23 340.127 199.26 339.287 199.98C338.447 200.68 337.297 201.03 335.837 201.03ZM356.158 219.18C354.538 219.18 353.088 218.83 351.808 218.13C350.548 217.43 349.558 216.47 348.838 215.25C348.118 214.01 347.758 212.61 347.758 211.05C347.758 209.49 348.118 208.1 348.838 206.88C349.558 205.64 350.548 204.68 351.808 204C353.088 203.3 354.538 202.95 356.158 202.95C357.598 202.95 358.878 203.24 359.998 203.82C361.138 204.4 362.018 205.24 362.638 206.34L360.448 207.75C359.948 206.99 359.328 206.42 358.588 206.04C357.848 205.66 357.028 205.47 356.128 205.47C355.088 205.47 354.148 205.7 353.308 206.16C352.488 206.62 351.838 207.28 351.358 208.14C350.898 208.98 350.668 209.95 350.668 211.05C350.668 212.17 350.898 213.16 351.358 214.02C351.838 214.86 352.488 215.51 353.308 215.97C354.148 216.43 355.088 216.66 356.128 216.66C357.028 216.66 357.848 216.47 358.588 216.09C359.328 215.71 359.948 215.14 360.448 214.38L362.638 215.76C362.018 216.86 361.138 217.71 359.998 218.31C358.878 218.89 357.598 219.18 356.158 219.18ZM378.011 205.62H372.191V219H369.311V205.62H363.491V203.1H378.011V205.62ZM391.786 210.75C393.846 211.27 394.876 212.56 394.876 214.62C394.876 216.02 394.346 217.1 393.286 217.86C392.246 218.62 390.686 219 388.606 219H380.956V203.1H388.336C390.216 203.1 391.686 203.46 392.746 204.18C393.806 204.88 394.336 205.88 394.336 207.18C394.336 208.02 394.106 208.75 393.646 209.37C393.206 209.97 392.586 210.43 391.786 210.75ZM383.776 209.94H388.096C389.196 209.94 390.026 209.74 390.586 209.34C391.166 208.94 391.456 208.36 391.456 207.6C391.456 206.08 390.336 205.32 388.096 205.32H383.776V209.94ZM388.396 216.78C389.596 216.78 390.496 216.59 391.096 216.21C391.696 215.83 391.996 215.24 391.996 214.44C391.996 213.62 391.716 213.01 391.156 212.61C390.616 212.21 389.756 212.01 388.576 212.01H383.776V216.78H388.396ZM406.194 219.18C404.614 219.18 403.194 218.83 401.934 218.13C400.674 217.43 399.684 216.47 398.964 215.25C398.264 214.01 397.914 212.61 397.914 211.05C397.914 209.49 398.264 208.1 398.964 206.88C399.684 205.64 400.674 204.68 401.934 204C403.194 203.3 404.614 202.95 406.194 202.95C407.774 202.95 409.184 203.3 410.424 204C411.684 204.68 412.664 205.64 413.364 206.88C414.084 208.1 414.444 209.49 414.444 211.05C414.444 212.61 414.084 214.01 413.364 215.25C412.664 216.47 411.684 217.43 410.424 218.13C409.184 218.83 407.774 219.18 406.194 219.18ZM406.194 216.66C407.214 216.66 408.124 216.43 408.924 215.97C409.744 215.49 410.384 214.83 410.844 213.99C411.304 213.13 411.534 212.15 411.534 211.05C411.534 209.95 411.304 208.98 410.844 208.14C410.384 207.28 409.744 206.62 408.924 206.16C408.124 205.7 407.214 205.47 406.194 205.47C405.174 205.47 404.254 205.7 403.434 206.16C402.634 206.62 401.994 207.28 401.514 208.14C401.054 208.98 400.824 209.95 400.824 211.05C400.824 212.15 401.054 213.13 401.514 213.99C401.994 214.83 402.634 215.49 403.434 215.97C404.254 216.43 405.174 216.66 406.194 216.66Z" fill="#2C2B2C"/>
<path d="M499.96 148.912V151H487.888V149.368L494.728 142.768C495.56 141.968 496.12 141.28 496.408 140.704C496.696 140.112 496.84 139.52 496.84 138.928C496.84 138.048 496.528 137.368 495.904 136.888C495.296 136.392 494.416 136.144 493.264 136.144C491.408 136.144 489.976 136.752 488.968 137.968L487.336 136.552C487.992 135.752 488.848 135.128 489.904 134.68C490.976 134.232 492.168 134.008 493.48 134.008C495.24 134.008 496.64 134.432 497.68 135.28C498.72 136.112 499.24 137.248 499.24 138.688C499.24 139.584 499.048 140.432 498.664 141.232C498.28 142.032 497.552 142.944 496.48 143.968L491.344 148.912H499.96ZM509.111 140.8C510.215 140.8 511.199 141.008 512.063 141.424C512.943 141.84 513.631 142.44 514.127 143.224C514.623 143.992 514.871 144.88 514.871 145.888C514.871 146.944 514.607 147.872 514.079 148.672C513.567 149.472 512.855 150.096 511.943 150.544C511.047 150.976 510.039 151.192 508.919 151.192C506.663 151.192 504.919 150.464 503.687 149.008C502.471 147.552 501.863 145.488 501.863 142.816C501.863 140.944 502.191 139.352 502.847 138.04C503.519 136.712 504.447 135.712 505.631 135.04C506.831 134.352 508.223 134.008 509.807 134.008C510.623 134.008 511.391 134.096 512.111 134.272C512.831 134.432 513.455 134.672 513.983 134.992L513.071 136.864C512.271 136.336 511.199 136.072 509.855 136.072C508.111 136.072 506.743 136.616 505.751 137.704C504.759 138.776 504.263 140.344 504.263 142.408C504.263 142.664 504.271 142.864 504.287 143.008C504.767 142.288 505.423 141.744 506.255 141.376C507.103 140.992 508.055 140.8 509.111 140.8ZM508.823 149.248C509.927 149.248 510.823 148.952 511.511 148.36C512.199 147.768 512.543 146.976 512.543 145.984C512.543 144.992 512.191 144.208 511.487 143.632C510.799 143.04 509.871 142.744 508.703 142.744C507.951 142.744 507.279 142.888 506.687 143.176C506.111 143.464 505.655 143.856 505.319 144.352C504.999 144.848 504.839 145.4 504.839 146.008C504.839 146.6 504.991 147.144 505.295 147.64C505.615 148.12 506.071 148.512 506.663 148.816C507.271 149.104 507.991 149.248 508.823 149.248ZM524.201 138.28H526.505V143.68H533.753V138.28H536.057V151H533.753V145.672H526.505V151H524.201V138.28ZM545.073 138.16C546.833 138.16 548.177 138.592 549.105 139.456C550.049 140.32 550.521 141.608 550.521 143.32V151H548.337V149.32C547.953 149.912 547.401 150.368 546.681 150.688C545.977 150.992 545.137 151.144 544.161 151.144C542.737 151.144 541.593 150.8 540.729 150.112C539.881 149.424 539.457 148.52 539.457 147.4C539.457 146.28 539.865 145.384 540.681 144.712C541.497 144.024 542.793 143.68 544.569 143.68H548.217V143.224C548.217 142.232 547.929 141.472 547.353 140.944C546.777 140.416 545.929 140.152 544.809 140.152C544.057 140.152 543.321 140.28 542.601 140.536C541.881 140.776 541.273 141.104 540.777 141.52L539.817 139.792C540.473 139.264 541.257 138.864 542.169 138.592C543.081 138.304 544.049 138.16 545.073 138.16ZM544.545 149.368C545.425 149.368 546.185 149.176 546.825 148.792C547.465 148.392 547.929 147.832 548.217 147.112V145.336H544.665C542.713 145.336 541.737 145.992 541.737 147.304C541.737 147.944 541.985 148.448 542.481 148.816C542.977 149.184 543.665 149.368 544.545 149.368ZM565.243 134.2V151H562.867V136.288H559.075V134.2H565.243ZM575.782 151.192C574.454 151.192 573.27 150.856 572.23 150.184C571.206 149.496 570.398 148.504 569.806 147.208C569.214 145.912 568.918 144.376 568.918 142.6C568.918 140.824 569.214 139.288 569.806 137.992C570.398 136.696 571.206 135.712 572.23 135.04C573.27 134.352 574.454 134.008 575.782 134.008C577.094 134.008 578.262 134.352 579.286 135.04C580.326 135.712 581.142 136.696 581.734 137.992C582.326 139.288 582.622 140.824 582.622 142.6C582.622 144.376 582.326 145.912 581.734 147.208C581.142 148.504 580.326 149.496 579.286 150.184C578.262 150.856 577.094 151.192 575.782 151.192ZM575.782 149.056C577.126 149.056 578.198 148.504 578.998 147.4C579.814 146.296 580.222 144.696 580.222 142.6C580.222 140.504 579.814 138.904 578.998 137.8C578.198 136.696 577.126 136.144 575.782 136.144C574.422 136.144 573.334 136.696 572.518 137.8C571.718 138.904 571.318 140.504 571.318 142.6C571.318 144.696 571.718 146.296 572.518 147.4C573.334 148.504 574.422 149.056 575.782 149.056ZM591.789 151.192C590.461 151.192 589.277 150.856 588.237 150.184C587.213 149.496 586.405 148.504 585.813 147.208C585.221 145.912 584.925 144.376 584.925 142.6C584.925 140.824 585.221 139.288 585.813 137.992C586.405 136.696 587.213 135.712 588.237 135.04C589.277 134.352 590.461 134.008 591.789 134.008C593.101 134.008 594.269 134.352 595.293 135.04C596.333 135.712 597.149 136.696 597.741 137.992C598.333 139.288 598.629 140.824 598.629 142.6C598.629 144.376 598.333 145.912 597.741 147.208C597.149 148.504 596.333 149.496 595.293 150.184C594.269 150.856 593.101 151.192 591.789 151.192ZM591.789 149.056C593.133 149.056 594.205 148.504 595.005 147.4C595.821 146.296 596.229 144.696 596.229 142.6C596.229 140.504 595.821 138.904 595.005 137.8C594.205 136.696 593.133 136.144 591.789 136.144C590.429 136.144 589.341 136.696 588.525 137.8C587.725 138.904 587.325 140.504 587.325 142.6C587.325 144.696 587.725 146.296 588.525 147.4C589.341 148.504 590.429 149.056 591.789 149.056ZM607.797 151.192C606.469 151.192 605.285 150.856 604.245 150.184C603.221 149.496 602.413 148.504 601.821 147.208C601.229 145.912 600.933 144.376 600.933 142.6C600.933 140.824 601.229 139.288 601.821 137.992C602.413 136.696 603.221 135.712 604.245 135.04C605.285 134.352 606.469 134.008 607.797 134.008C609.109 134.008 610.277 134.352 611.301 135.04C612.341 135.712 613.157 136.696 613.749 137.992C614.341 139.288 614.637 140.824 614.637 142.6C614.637 144.376 614.341 145.912 613.749 147.208C613.157 148.504 612.341 149.496 611.301 150.184C610.277 150.856 609.109 151.192 607.797 151.192ZM607.797 149.056C609.141 149.056 610.213 148.504 611.013 147.4C611.829 146.296 612.237 144.696 612.237 142.6C612.237 140.504 611.829 138.904 611.013 137.8C610.213 136.696 609.141 136.144 607.797 136.144C606.437 136.144 605.349 136.696 604.533 137.8C603.733 138.904 603.333 140.504 603.333 142.6C603.333 144.696 603.733 146.296 604.533 147.4C605.349 148.504 606.437 149.056 607.797 149.056ZM634.618 138.28V151H632.314V145.864C630.938 146.504 629.57 146.824 628.21 146.824C626.626 146.824 625.402 146.456 624.538 145.72C623.674 144.984 623.242 143.88 623.242 142.408V138.28H625.546V142.264C625.546 143.144 625.818 143.808 626.362 144.256C626.922 144.704 627.698 144.928 628.69 144.928C629.81 144.928 631.018 144.648 632.314 144.088V138.28H634.618ZM650.587 144.712C650.587 144.888 650.571 145.12 650.539 145.408H640.219C640.363 146.528 640.851 147.432 641.683 148.12C642.531 148.792 643.579 149.128 644.827 149.128C646.347 149.128 647.571 148.616 648.499 147.592L649.771 149.08C649.195 149.752 648.475 150.264 647.611 150.616C646.763 150.968 645.811 151.144 644.755 151.144C643.411 151.144 642.219 150.872 641.179 150.328C640.139 149.768 639.331 148.992 638.755 148C638.195 147.008 637.915 145.888 637.915 144.64C637.915 143.408 638.187 142.296 638.731 141.304C639.291 140.312 640.051 139.544 641.011 139C641.987 138.44 643.083 138.16 644.299 138.16C645.515 138.16 646.595 138.44 647.539 139C648.499 139.544 649.243 140.312 649.771 141.304C650.315 142.296 650.587 143.432 650.587 144.712ZM644.299 140.104C643.195 140.104 642.267 140.44 641.515 141.112C640.779 141.784 640.347 142.664 640.219 143.752H648.379C648.251 142.68 647.811 141.808 647.059 141.136C646.323 140.448 645.403 140.104 644.299 140.104ZM664.871 138.28V151H662.567V140.296H657.095L656.951 143.128C656.871 144.84 656.719 146.272 656.495 147.424C656.271 148.56 655.903 149.472 655.391 150.16C654.879 150.848 654.167 151.192 653.255 151.192C652.839 151.192 652.367 151.12 651.839 150.976L651.983 149.032C652.191 149.08 652.383 149.104 652.559 149.104C653.199 149.104 653.679 148.824 653.999 148.264C654.319 147.704 654.527 147.04 654.623 146.272C654.719 145.504 654.807 144.408 654.887 142.984L655.103 138.28H664.871ZM674.774 151.144C673.51 151.144 672.374 150.864 671.366 150.304C670.358 149.744 669.566 148.976 668.99 148C668.43 147.008 668.15 145.888 668.15 144.64C668.15 143.392 668.43 142.28 668.99 141.304C669.566 140.312 670.358 139.544 671.366 139C672.374 138.44 673.51 138.16 674.774 138.16C676.038 138.16 677.166 138.44 678.158 139C679.166 139.544 679.95 140.312 680.51 141.304C681.086 142.28 681.374 143.392 681.374 144.64C681.374 145.888 681.086 147.008 680.51 148C679.95 148.976 679.166 149.744 678.158 150.304C677.166 150.864 676.038 151.144 674.774 151.144ZM674.774 149.128C675.59 149.128 676.318 148.944 676.958 148.576C677.614 148.192 678.126 147.664 678.494 146.992C678.862 146.304 679.046 145.52 679.046 144.64C679.046 143.76 678.862 142.984 678.494 142.312C678.126 141.624 677.614 141.096 676.958 140.728C676.318 140.36 675.59 140.176 674.774 140.176C673.958 140.176 673.222 140.36 672.566 140.728C671.926 141.096 671.414 141.624 671.03 142.312C670.662 142.984 670.478 143.76 670.478 144.64C670.478 145.52 670.662 146.304 671.03 146.992C671.414 147.664 671.926 148.192 672.566 148.576C673.222 148.944 673.958 149.128 674.774 149.128ZM693.365 144.4C695.013 144.816 695.837 145.848 695.837 147.496C695.837 148.616 695.413 149.48 694.565 150.088C693.733 150.696 692.485 151 690.821 151H684.701V138.28H690.605C692.109 138.28 693.285 138.568 694.133 139.144C694.981 139.704 695.405 140.504 695.405 141.544C695.405 142.216 695.221 142.8 694.853 143.296C694.501 143.776 694.005 144.144 693.365 144.4ZM686.957 143.752H690.413C691.293 143.752 691.957 143.592 692.405 143.272C692.869 142.952 693.101 142.488 693.101 141.88C693.101 140.664 692.205 140.056 690.413 140.056H686.957V143.752ZM690.653 149.224C691.613 149.224 692.333 149.072 692.813 148.768C693.293 148.464 693.533 147.992 693.533 147.352C693.533 146.696 693.309 146.208 692.861 145.888C692.429 145.568 691.741 145.408 690.797 145.408H686.957V149.224H690.653ZM710.939 144.712C710.939 144.888 710.923 145.12 710.891 145.408H700.571C700.715 146.528 701.203 147.432 702.035 148.12C702.883 148.792 703.931 149.128 705.179 149.128C706.699 149.128 707.923 148.616 708.851 147.592L710.123 149.08C709.547 149.752 708.827 150.264 707.963 150.616C707.115 150.968 706.163 151.144 705.107 151.144C703.763 151.144 702.571 150.872 701.531 150.328C700.491 149.768 699.683 148.992 699.107 148C698.547 147.008 698.267 145.888 698.267 144.64C698.267 143.408 698.539 142.296 699.083 141.304C699.643 140.312 700.403 139.544 701.363 139C702.339 138.44 703.435 138.16 704.651 138.16C705.867 138.16 706.947 138.44 707.891 139C708.851 139.544 709.595 140.312 710.123 141.304C710.667 142.296 710.939 143.432 710.939 144.712ZM704.651 140.104C703.547 140.104 702.619 140.44 701.867 141.112C701.131 141.784 700.699 142.664 700.571 143.752H708.731C708.603 142.68 708.163 141.808 707.411 141.136C706.675 140.448 705.755 140.104 704.651 140.104ZM719.457 145.624H716.817V151H714.513V138.28H716.817V143.656H719.505L723.633 138.28H726.105L721.281 144.4L726.441 151H723.729L719.457 145.624Z" fill="#2C2B2C"/>
<path d="M29.232 134.2V151H26.16V136.84H17.448V151H14.376V134.2H29.232ZM45.2492 138.184V151H42.2492V140.728H37.4492L37.3292 143.272C37.2492 144.968 37.0892 146.392 36.8492 147.544C36.6252 148.68 36.2332 149.584 35.6732 150.256C35.1292 150.912 34.3772 151.24 33.4172 151.24C32.9692 151.24 32.4172 151.152 31.7612 150.976L31.9052 148.456C32.1292 148.504 32.3212 148.528 32.4812 148.528C33.0892 148.528 33.5452 148.288 33.8492 147.808C34.1532 147.312 34.3452 146.728 34.4252 146.056C34.5212 145.368 34.6012 144.392 34.6652 143.128L34.8812 138.184H45.2492ZM55.0014 151.168C53.7054 151.168 52.5374 150.888 51.4974 150.328C50.4574 149.768 49.6414 148.992 49.0494 148C48.4734 146.992 48.1854 145.856 48.1854 144.592C48.1854 143.328 48.4734 142.2 49.0494 141.208C49.6414 140.216 50.4574 139.44 51.4974 138.88C52.5374 138.32 53.7054 138.04 55.0014 138.04C56.3134 138.04 57.4894 138.32 58.5294 138.88C59.5694 139.44 60.3774 140.216 60.9534 141.208C61.5454 142.2 61.8414 143.328 61.8414 144.592C61.8414 145.856 61.5454 146.992 60.9534 148C60.3774 148.992 59.5694 149.768 58.5294 150.328C57.4894 150.888 56.3134 151.168 55.0014 151.168ZM55.0014 148.6C56.1054 148.6 57.0174 148.232 57.7374 147.496C58.4574 146.76 58.8174 145.792 58.8174 144.592C58.8174 143.392 58.4574 142.424 57.7374 141.688C57.0174 140.952 56.1054 140.584 55.0014 140.584C53.8974 140.584 52.9854 140.952 52.2654 141.688C51.5614 142.424 51.2094 143.392 51.2094 144.592C51.2094 145.792 51.5614 146.76 52.2654 147.496C52.9854 148.232 53.8974 148.6 55.0014 148.6ZM74.4883 140.728H70.0003V151H67.0003V140.728H62.4883V138.184H74.4883V140.728ZM76.6644 138.184H79.6644V143.392H86.1204V138.184H89.1204V151H86.1204V145.936H79.6644V151H76.6644V138.184ZM98.853 151.168C97.557 151.168 96.389 150.888 95.349 150.328C94.309 149.768 93.493 148.992 92.901 148C92.325 146.992 92.037 145.856 92.037 144.592C92.037 143.328 92.325 142.2 92.901 141.208C93.493 140.216 94.309 139.44 95.349 138.88C96.389 138.32 97.557 138.04 98.853 138.04C100.165 138.04 101.341 138.32 102.381 138.88C103.421 139.44 104.229 140.216 104.805 141.208C105.397 142.2 105.693 143.328 105.693 144.592C105.693 145.856 105.397 146.992 104.805 148C104.229 148.992 103.421 149.768 102.381 150.328C101.341 150.888 100.165 151.168 98.853 151.168ZM98.853 148.6C99.957 148.6 100.869 148.232 101.589 147.496C102.309 146.76 102.669 145.792 102.669 144.592C102.669 143.392 102.309 142.424 101.589 141.688C100.869 140.952 99.957 140.584 98.853 140.584C97.749 140.584 96.837 140.952 96.117 141.688C95.413 142.424 95.061 143.392 95.061 144.592C95.061 145.792 95.413 146.76 96.117 147.496C96.837 148.232 97.749 148.6 98.853 148.6ZM114.489 151.168C113.161 151.168 111.969 150.888 110.913 150.328C109.857 149.768 109.033 148.992 108.441 148C107.849 146.992 107.553 145.856 107.553 144.592C107.553 143.328 107.849 142.2 108.441 141.208C109.033 140.216 109.849 139.44 110.889 138.88C111.945 138.32 113.145 138.04 114.489 138.04C115.753 138.04 116.857 138.296 117.801 138.808C118.761 139.32 119.481 140.056 119.961 141.016L117.657 142.36C117.289 141.768 116.825 141.328 116.265 141.04C115.721 140.736 115.121 140.584 114.465 140.584C113.345 140.584 112.417 140.952 111.681 141.688C110.945 142.408 110.577 143.376 110.577 144.592C110.577 145.808 110.937 146.784 111.657 147.52C112.393 148.24 113.329 148.6 114.465 148.6C115.121 148.6 115.721 148.456 116.265 148.168C116.825 147.864 117.289 147.416 117.657 146.824L119.961 148.168C119.465 149.128 118.737 149.872 117.777 150.4C116.833 150.912 115.737 151.168 114.489 151.168ZM132.637 140.728H128.149V151H125.149V140.728H120.637V138.184H132.637V140.728ZM141.245 142.408C142.877 142.408 144.125 142.776 144.989 143.512C145.869 144.248 146.309 145.288 146.309 146.632C146.309 148.04 145.829 149.128 144.869 149.896C143.909 150.664 142.557 151.04 140.813 151.024L134.813 151V138.184H137.813V142.384L141.245 142.408ZM140.549 148.816C141.429 148.832 142.101 148.648 142.565 148.264C143.029 147.88 143.261 147.32 143.261 146.584C143.261 145.864 143.037 145.336 142.589 145C142.141 144.664 141.461 144.488 140.549 144.472L137.813 144.448V148.792L140.549 148.816ZM167.867 138.184V151H164.891V140.728H158.579V151H155.579V138.184H167.867ZM179.018 138.04C180.266 138.04 181.378 138.312 182.354 138.856C183.346 139.4 184.122 140.168 184.682 141.16C185.242 142.152 185.522 143.296 185.522 144.592C185.522 145.888 185.242 147.04 184.682 148.048C184.122 149.04 183.346 149.808 182.354 150.352C181.378 150.896 180.266 151.168 179.018 151.168C177.29 151.168 175.922 150.592 174.914 149.44V155.656H171.914V138.184H174.77V139.864C175.266 139.256 175.874 138.8 176.594 138.496C177.33 138.192 178.138 138.04 179.018 138.04ZM178.682 148.6C179.786 148.6 180.69 148.232 181.394 147.496C182.114 146.76 182.474 145.792 182.474 144.592C182.474 143.392 182.114 142.424 181.394 141.688C180.69 140.952 179.786 140.584 178.682 140.584C177.962 140.584 177.314 140.752 176.738 141.088C176.162 141.408 175.706 141.872 175.37 142.48C175.034 143.088 174.866 143.792 174.866 144.592C174.866 145.392 175.034 146.096 175.37 146.704C175.706 147.312 176.162 147.784 176.738 148.12C177.314 148.44 177.962 148.6 178.682 148.6ZM200.508 144.664C200.508 144.872 200.492 145.168 200.46 145.552H190.404C190.58 146.496 191.036 147.248 191.772 147.808C192.524 148.352 193.452 148.624 194.556 148.624C195.964 148.624 197.124 148.16 198.036 147.232L199.644 149.08C199.068 149.768 198.34 150.288 197.46 150.64C196.58 150.992 195.588 151.168 194.484 151.168C193.076 151.168 191.836 150.888 190.764 150.328C189.692 149.768 188.86 148.992 188.268 148C187.692 146.992 187.404 145.856 187.404 144.592C187.404 143.344 187.684 142.224 188.244 141.232C188.82 140.224 189.612 139.44 190.62 138.88C191.628 138.32 192.764 138.04 194.028 138.04C195.276 138.04 196.388 138.32 197.364 138.88C198.356 139.424 199.124 140.2 199.668 141.208C200.228 142.2 200.508 143.352 200.508 144.664ZM194.028 140.44C193.068 140.44 192.252 140.728 191.58 141.304C190.924 141.864 190.524 142.616 190.38 143.56H197.652C197.524 142.632 197.132 141.88 196.476 141.304C195.82 140.728 195.004 140.44 194.028 140.44ZM217.305 148.456V153.856H214.497V151H204.609V153.856H201.825V148.456H202.425C203.241 148.424 203.793 147.904 204.081 146.896C204.385 145.872 204.585 144.432 204.681 142.576L204.849 138.184H215.409V148.456H217.305ZM207.417 142.792C207.353 144.264 207.233 145.464 207.057 146.392C206.881 147.32 206.561 148.008 206.097 148.456H212.409V140.728H207.489L207.417 142.792ZM232.273 138.184V151H229.297V140.728H222.985V151H219.985V138.184H232.273ZM243.425 138.04C244.673 138.04 245.785 138.312 246.761 138.856C247.753 139.4 248.529 140.168 249.089 141.16C249.649 142.152 249.929 143.296 249.929 144.592C249.929 145.888 249.649 147.04 249.089 148.048C248.529 149.04 247.753 149.808 246.761 150.352C245.785 150.896 244.673 151.168 243.425 151.168C241.697 151.168 240.329 150.592 239.321 149.44V155.656H236.321V138.184H239.177V139.864C239.673 139.256 240.281 138.8 241.001 138.496C241.737 138.192 242.545 138.04 243.425 138.04ZM243.089 148.6C244.193 148.6 245.097 148.232 245.801 147.496C246.521 146.76 246.881 145.792 246.881 144.592C246.881 143.392 246.521 142.424 245.801 141.688C245.097 140.952 244.193 140.584 243.089 140.584C242.369 140.584 241.721 140.752 241.145 141.088C240.569 141.408 240.113 141.872 239.777 142.48C239.441 143.088 239.273 143.792 239.273 144.592C239.273 145.392 239.441 146.096 239.777 146.704C240.113 147.312 240.569 147.784 241.145 148.12C241.721 148.44 242.369 148.6 243.089 148.6ZM252.914 138.184H255.914V146.632L262.994 138.184H265.73V151H262.73V142.552L255.674 151H252.914V138.184ZM269.766 138.184H272.766V143.392H279.222V138.184H282.222V151H279.222V145.936H272.766V151H269.766V138.184ZM286.243 138.184H289.243V146.632L296.323 138.184H299.059V151H296.059V142.552L289.003 151H286.243V138.184ZM315.694 151V142.504L311.374 149.656H310.078L305.83 142.48V151H303.094V138.184H306.238L310.798 146.2L315.574 138.184H318.382L318.406 151H315.694ZM327.206 138.04C329.094 138.04 330.534 138.496 331.526 139.408C332.534 140.304 333.038 141.664 333.038 143.488V151H330.206V149.44C329.838 150 329.31 150.432 328.622 150.736C327.95 151.024 327.134 151.168 326.174 151.168C325.214 151.168 324.374 151.008 323.654 150.688C322.934 150.352 322.374 149.896 321.974 149.32C321.59 148.728 321.398 148.064 321.398 147.328C321.398 146.176 321.822 145.256 322.67 144.568C323.534 143.864 324.886 143.512 326.726 143.512H330.038V143.32C330.038 142.424 329.766 141.736 329.222 141.256C328.694 140.776 327.902 140.536 326.846 140.536C326.126 140.536 325.414 140.648 324.71 140.872C324.022 141.096 323.438 141.408 322.958 141.808L321.782 139.624C322.454 139.112 323.262 138.72 324.206 138.448C325.15 138.176 326.15 138.04 327.206 138.04ZM326.798 148.984C327.55 148.984 328.214 148.816 328.79 148.48C329.382 148.128 329.798 147.632 330.038 146.992V145.504H326.942C325.214 145.504 324.35 146.072 324.35 147.208C324.35 147.752 324.566 148.184 324.998 148.504C325.43 148.824 326.03 148.984 326.798 148.984ZM346.902 140.728H342.414V151H339.414V140.728H334.902V138.184H346.902V140.728ZM360.516 144.664C360.516 144.872 360.5 145.168 360.468 145.552H350.412C350.588 146.496 351.044 147.248 351.78 147.808C352.532 148.352 353.46 148.624 354.564 148.624C355.972 148.624 357.132 148.16 358.044 147.232L359.652 149.08C359.076 149.768 358.348 150.288 357.468 150.64C356.588 150.992 355.596 151.168 354.492 151.168C353.084 151.168 351.844 150.888 350.772 150.328C349.7 149.768 348.868 148.992 348.276 148C347.7 146.992 347.412 145.856 347.412 144.592C347.412 143.344 347.692 142.224 348.252 141.232C348.828 140.224 349.62 139.44 350.628 138.88C351.636 138.32 352.772 138.04 354.036 138.04C355.284 138.04 356.396 138.32 357.372 138.88C358.364 139.424 359.132 140.2 359.676 141.208C360.236 142.2 360.516 143.352 360.516 144.664ZM354.036 140.44C353.076 140.44 352.26 140.728 351.588 141.304C350.932 141.864 350.532 142.616 350.388 143.56H357.66C357.532 142.632 357.14 141.88 356.484 141.304C355.828 140.728 355.012 140.44 354.036 140.44ZM375.249 138.184V151H372.249V140.728H367.449L367.329 143.272C367.249 144.968 367.089 146.392 366.849 147.544C366.625 148.68 366.233 149.584 365.673 150.256C365.129 150.912 364.377 151.24 363.417 151.24C362.969 151.24 362.417 151.152 361.761 150.976L361.905 148.456C362.129 148.504 362.321 148.528 362.481 148.528C363.089 148.528 363.545 148.288 363.849 147.808C364.153 147.312 364.345 146.728 364.425 146.056C364.521 145.368 364.601 144.392 364.665 143.128L364.881 138.184H375.249ZM385.721 142.408C387.353 142.408 388.601 142.776 389.465 143.512C390.345 144.248 390.785 145.288 390.785 146.632C390.785 148.04 390.305 149.128 389.345 149.896C388.385 150.664 387.033 151.04 385.289 151.024L379.289 151V138.184H382.289V142.384L385.721 142.408ZM385.025 148.816C385.905 148.832 386.577 148.648 387.041 148.264C387.505 147.88 387.737 147.32 387.737 146.584C387.737 145.864 387.513 145.336 387.065 145C386.617 144.664 385.937 144.488 385.025 144.472L382.289 144.448V148.792L385.025 148.816ZM399.254 151.168C397.926 151.168 396.734 150.888 395.678 150.328C394.622 149.768 393.798 148.992 393.206 148C392.614 146.992 392.318 145.856 392.318 144.592C392.318 143.328 392.614 142.2 393.206 141.208C393.798 140.216 394.614 139.44 395.654 138.88C396.71 138.32 397.91 138.04 399.254 138.04C400.518 138.04 401.622 138.296 402.566 138.808C403.526 139.32 404.246 140.056 404.726 141.016L402.422 142.36C402.054 141.768 401.59 141.328 401.03 141.04C400.486 140.736 399.886 140.584 399.23 140.584C398.11 140.584 397.182 140.952 396.446 141.688C395.71 142.408 395.342 143.376 395.342 144.592C395.342 145.808 395.702 146.784 396.422 147.52C397.158 148.24 398.094 148.6 399.23 148.6C399.886 148.6 400.486 148.456 401.03 148.168C401.59 147.864 402.054 147.416 402.422 146.824L404.726 148.168C404.23 149.128 403.502 149.872 402.542 150.4C401.598 150.912 400.502 151.168 399.254 151.168ZM417.402 140.728H412.914V151H409.914V140.728H405.402V138.184H417.402V140.728ZM428.867 144.328C430.451 144.808 431.243 145.832 431.243 147.4C431.243 148.552 430.811 149.44 429.947 150.064C429.083 150.688 427.803 151 426.107 151H419.579V138.184H425.843C427.411 138.184 428.635 138.472 429.515 139.048C430.395 139.624 430.835 140.44 430.835 141.496C430.835 142.152 430.659 142.72 430.307 143.2C429.971 143.68 429.491 144.056 428.867 144.328ZM422.435 143.536H425.579C427.131 143.536 427.907 143 427.907 141.928C427.907 140.888 427.131 140.368 425.579 140.368H422.435V143.536ZM425.867 148.816C427.515 148.816 428.339 148.28 428.339 147.208C428.339 146.648 428.147 146.232 427.763 145.96C427.379 145.672 426.779 145.528 425.963 145.528H422.435V148.816H425.867ZM439.214 138.04C441.102 138.04 442.542 138.496 443.534 139.408C444.542 140.304 445.046 141.664 445.046 143.488V151H442.214V149.44C441.846 150 441.318 150.432 440.63 150.736C439.958 151.024 439.142 151.168 438.182 151.168C437.222 151.168 436.382 151.008 435.662 150.688C434.942 150.352 434.382 149.896 433.982 149.32C433.598 148.728 433.406 148.064 433.406 147.328C433.406 146.176 433.83 145.256 434.678 144.568C435.542 143.864 436.894 143.512 438.734 143.512H442.046V143.32C442.046 142.424 441.774 141.736 441.23 141.256C440.702 140.776 439.91 140.536 438.854 140.536C438.134 140.536 437.422 140.648 436.718 140.872C436.03 141.096 435.446 141.408 434.966 141.808L433.79 139.624C434.462 139.112 435.27 138.72 436.214 138.448C437.158 138.176 438.158 138.04 439.214 138.04ZM438.806 148.984C439.558 148.984 440.222 148.816 440.798 148.48C441.39 148.128 441.806 147.632 442.046 146.992V145.504H438.95C437.222 145.504 436.358 146.072 436.358 147.208C436.358 147.752 436.574 148.184 437.006 148.504C437.438 148.824 438.038 148.984 438.806 148.984Z" fill="#2C2B2C"/>
<g filter="url(#filter0_d)">
<rect x="12" y="266" width="230" height="230" rx="10" fill="white"/>
</g>
<path d="M100.784 304L100.76 292.864L95.24 302.08H93.848L88.328 293.008V304H85.376V287.2H87.944L94.592 298.312L101.168 287.2H103.712L103.76 304H100.784ZM108.125 291.184H111.125V299.632L118.205 291.184H120.941V304H117.941V295.552L110.885 304H108.125V291.184ZM130.305 298.864H127.977V304H124.977V291.184H127.977V296.368H130.377L134.169 291.184H137.385L132.729 297.352L137.697 304H134.169L130.305 298.864ZM146.917 291.04C148.165 291.04 149.277 291.312 150.253 291.856C151.245 292.4 152.021 293.168 152.581 294.16C153.141 295.152 153.421 296.296 153.421 297.592C153.421 298.888 153.141 300.04 152.581 301.048C152.021 302.04 151.245 302.808 150.253 303.352C149.277 303.896 148.165 304.168 146.917 304.168C145.189 304.168 143.821 303.592 142.813 302.44V308.656H139.813V291.184H142.669V292.864C143.165 292.256 143.773 291.8 144.493 291.496C145.229 291.192 146.037 291.04 146.917 291.04ZM146.581 301.6C147.685 301.6 148.589 301.232 149.293 300.496C150.013 299.76 150.373 298.792 150.373 297.592C150.373 296.392 150.013 295.424 149.293 294.688C148.589 293.952 147.685 293.584 146.581 293.584C145.861 293.584 145.213 293.752 144.637 294.088C144.061 294.408 143.605 294.872 143.269 295.48C142.933 296.088 142.765 296.792 142.765 297.592C142.765 298.392 142.933 299.096 143.269 299.704C143.605 300.312 144.061 300.784 144.637 301.12C145.213 301.44 145.861 301.6 146.581 301.6ZM162.119 304.168C160.823 304.168 159.655 303.888 158.615 303.328C157.575 302.768 156.759 301.992 156.167 301C155.591 299.992 155.303 298.856 155.303 297.592C155.303 296.328 155.591 295.2 156.167 294.208C156.759 293.216 157.575 292.44 158.615 291.88C159.655 291.32 160.823 291.04 162.119 291.04C163.431 291.04 164.607 291.32 165.647 291.88C166.687 292.44 167.495 293.216 168.071 294.208C168.663 295.2 168.959 296.328 168.959 297.592C168.959 298.856 168.663 299.992 168.071 301C167.495 301.992 166.687 302.768 165.647 303.328C164.607 303.888 163.431 304.168 162.119 304.168ZM162.119 301.6C163.223 301.6 164.135 301.232 164.855 300.496C165.575 299.76 165.935 298.792 165.935 297.592C165.935 296.392 165.575 295.424 164.855 294.688C164.135 293.952 163.223 293.584 162.119 293.584C161.015 293.584 160.103 293.952 159.383 294.688C158.679 295.424 158.327 296.392 158.327 297.592C158.327 298.792 158.679 299.76 159.383 300.496C160.103 301.232 161.015 301.6 162.119 301.6Z" fill="black"/>
<path d="M131.264 401.96V409H98.24V403.432L116.032 386.536C118.037 384.616 119.381 382.952 120.064 381.544C120.789 380.093 121.152 378.664 121.152 377.256C121.152 375.165 120.448 373.565 119.04 372.456C117.632 371.347 115.563 370.792 112.832 370.792C108.267 370.792 104.768 372.349 102.336 375.464L96.512 370.984C98.2613 368.637 100.608 366.824 103.552 365.544C106.539 364.221 109.867 363.56 113.536 363.56C118.4 363.56 122.283 364.712 125.184 367.016C128.085 369.32 129.536 372.456 129.536 376.424C129.536 378.856 129.024 381.139 128 383.272C126.976 385.405 125.013 387.837 122.112 390.568L110.144 401.96H131.264ZM151.554 364.2V409H143.234V371.176H133.762V364.2H151.554Z" fill="#E38C3B"/>
<g filter="url(#filter1_d)">
<rect x="286" y="266" width="230" height="230" rx="10" fill="white"/>
</g>
<path d="M388.304 364.2V409H379.984V371.176H370.512V364.2H388.304ZM430.983 364.2V369.768L413.575 409H404.679L421.511 371.24H403.911V378.856H396.167V364.2H430.983Z" fill="#E38C3B"/>
<path d="M373.784 304L373.76 292.864L368.24 302.08H366.848L361.328 293.008V304H358.376V287.2H360.944L367.592 298.312L374.168 287.2H376.712L376.76 304H373.784ZM385.901 291.04C387.789 291.04 389.229 291.496 390.221 292.408C391.229 293.304 391.733 294.664 391.733 296.488V304H388.901V302.44C388.533 303 388.005 303.432 387.317 303.736C386.645 304.024 385.829 304.168 384.869 304.168C383.909 304.168 383.069 304.008 382.349 303.688C381.629 303.352 381.069 302.896 380.669 302.32C380.285 301.728 380.093 301.064 380.093 300.328C380.093 299.176 380.517 298.256 381.365 297.568C382.229 296.864 383.581 296.512 385.421 296.512H388.733V296.32C388.733 295.424 388.461 294.736 387.917 294.256C387.389 293.776 386.597 293.536 385.541 293.536C384.821 293.536 384.109 293.648 383.405 293.872C382.717 294.096 382.133 294.408 381.653 294.808L380.477 292.624C381.149 292.112 381.957 291.72 382.901 291.448C383.845 291.176 384.845 291.04 385.901 291.04ZM385.493 301.984C386.245 301.984 386.909 301.816 387.485 301.48C388.077 301.128 388.493 300.632 388.733 299.992V298.504H385.637C383.909 298.504 383.045 299.072 383.045 300.208C383.045 300.752 383.261 301.184 383.693 301.504C384.125 301.824 384.725 301.984 385.493 301.984ZM407.062 291.184V304H404.062V293.728H399.262L399.142 296.272C399.062 297.968 398.902 299.392 398.662 300.544C398.438 301.68 398.046 302.584 397.486 303.256C396.942 303.912 396.19 304.24 395.23 304.24C394.782 304.24 394.23 304.152 393.574 303.976L393.718 301.456C393.942 301.504 394.134 301.528 394.294 301.528C394.902 301.528 395.358 301.288 395.662 300.808C395.966 300.312 396.158 299.728 396.238 299.056C396.334 298.368 396.414 297.392 396.478 296.128L396.694 291.184H407.062ZM417.342 295.408C418.974 295.408 420.222 295.776 421.086 296.512C421.95 297.248 422.382 298.288 422.382 299.632C422.382 301.04 421.902 302.128 420.942 302.896C419.998 303.664 418.654 304.04 416.91 304.024L411.102 304V291.184H414.102V295.384L417.342 295.408ZM424.038 291.184H427.038V304H424.038V291.184ZM416.646 301.816C417.526 301.832 418.198 301.648 418.662 301.264C419.126 300.88 419.358 300.32 419.358 299.584C419.358 298.864 419.134 298.336 418.686 298C418.238 297.664 417.558 297.488 416.646 297.472L414.102 297.448V301.792L416.646 301.816ZM443.071 297.664C443.071 297.872 443.055 298.168 443.023 298.552H432.967C433.143 299.496 433.599 300.248 434.335 300.808C435.087 301.352 436.015 301.624 437.119 301.624C438.527 301.624 439.687 301.16 440.599 300.232L442.207 302.08C441.631 302.768 440.903 303.288 440.023 303.64C439.143 303.992 438.151 304.168 437.047 304.168C435.639 304.168 434.399 303.888 433.327 303.328C432.255 302.768 431.423 301.992 430.831 301C430.255 299.992 429.967 298.856 429.967 297.592C429.967 296.344 430.247 295.224 430.807 294.232C431.383 293.224 432.175 292.44 433.183 291.88C434.191 291.32 435.327 291.04 436.591 291.04C437.839 291.04 438.951 291.32 439.927 291.88C440.919 292.424 441.687 293.2 442.231 294.208C442.791 295.2 443.071 296.352 443.071 297.664ZM436.591 293.44C435.631 293.44 434.815 293.728 434.143 294.304C433.487 294.864 433.087 295.616 432.943 296.56H440.215C440.087 295.632 439.695 294.88 439.039 294.304C438.383 293.728 437.567 293.44 436.591 293.44Z" fill="black"/>
<g filter="url(#filter2_d)">
<rect x="560" y="266" width="230" height="230" rx="10" fill="white"/>
</g>
<path d="M659.304 364.2V409H650.984V371.176H641.512V364.2H659.304ZM708.127 398.824H700.191V409H692.127V398.824H667.551V393.064L689.631 364.2H698.527L677.727 391.784H692.383V382.76H700.191V391.784H708.127V398.824Z" fill="#E38C3B"/>
<path d="M628.08 304.24C626.384 304.24 624.848 303.872 623.472 303.136C622.112 302.384 621.04 301.352 620.256 300.04C619.488 298.728 619.104 297.248 619.104 295.6C619.104 293.952 619.496 292.472 620.28 291.16C621.064 289.848 622.136 288.824 623.496 288.088C624.872 287.336 626.408 286.96 628.104 286.96C629.48 286.96 630.736 287.2 631.872 287.68C633.008 288.16 633.968 288.856 634.752 289.768L632.736 291.664C631.52 290.352 630.024 289.696 628.248 289.696C627.096 289.696 626.064 289.952 625.152 290.464C624.24 290.96 623.528 291.656 623.016 292.552C622.504 293.448 622.248 294.464 622.248 295.6C622.248 296.736 622.504 297.752 623.016 298.648C623.528 299.544 624.24 300.248 625.152 300.76C626.064 301.256 627.096 301.504 628.248 301.504C630.024 301.504 631.52 300.84 632.736 299.512L634.752 301.432C633.968 302.344 633 303.04 631.848 303.52C630.712 304 629.456 304.24 628.08 304.24ZM644.417 291.04C645.665 291.04 646.777 291.312 647.753 291.856C648.745 292.4 649.521 293.168 650.081 294.16C650.641 295.152 650.921 296.296 650.921 297.592C650.921 298.888 650.641 300.04 650.081 301.048C649.521 302.04 648.745 302.808 647.753 303.352C646.777 303.896 645.665 304.168 644.417 304.168C642.689 304.168 641.321 303.592 640.313 302.44V308.656H637.313V291.184H640.169V292.864C640.665 292.256 641.273 291.8 641.993 291.496C642.729 291.192 643.537 291.04 644.417 291.04ZM644.081 301.6C645.185 301.6 646.089 301.232 646.793 300.496C647.513 299.76 647.873 298.792 647.873 297.592C647.873 296.392 647.513 295.424 646.793 294.688C646.089 293.952 645.185 293.584 644.081 293.584C643.361 293.584 642.713 293.752 642.137 294.088C641.561 294.408 641.105 294.872 640.769 295.48C640.433 296.088 640.265 296.792 640.265 297.592C640.265 298.392 640.433 299.096 640.769 299.704C641.105 300.312 641.561 300.784 642.137 301.12C642.713 301.44 643.361 301.6 644.081 301.6ZM665.907 297.664C665.907 297.872 665.891 298.168 665.859 298.552H655.803C655.979 299.496 656.435 300.248 657.171 300.808C657.923 301.352 658.851 301.624 659.955 301.624C661.363 301.624 662.523 301.16 663.435 300.232L665.043 302.08C664.467 302.768 663.739 303.288 662.859 303.64C661.979 303.992 660.987 304.168 659.883 304.168C658.475 304.168 657.235 303.888 656.163 303.328C655.091 302.768 654.259 301.992 653.667 301C653.091 299.992 652.803 298.856 652.803 297.592C652.803 296.344 653.083 295.224 653.643 294.232C654.219 293.224 655.011 292.44 656.019 291.88C657.027 291.32 658.163 291.04 659.427 291.04C660.675 291.04 661.787 291.32 662.763 291.88C663.755 292.424 664.523 293.2 665.067 294.208C665.627 295.2 665.907 296.352 665.907 297.664ZM659.427 293.44C658.467 293.44 657.651 293.728 656.979 294.304C656.323 294.864 655.923 295.616 655.779 296.56H663.051C662.923 295.632 662.531 294.88 661.875 294.304C661.219 293.728 660.403 293.44 659.427 293.44ZM682.704 301.456V306.856H679.896V304H670.008V306.856H667.224V301.456H667.824C668.64 301.424 669.192 300.904 669.48 299.896C669.784 298.872 669.984 297.432 670.08 295.576L670.248 291.184H680.808V301.456H682.704ZM672.816 295.792C672.752 297.264 672.632 298.464 672.456 299.392C672.28 300.32 671.96 301.008 671.496 301.456H677.808V293.728H672.888L672.816 295.792ZM685.383 291.184H688.383V296.392H694.839V291.184H697.839V304H694.839V298.936H688.383V304H685.383V291.184ZM701.86 291.184H704.86V299.632L711.94 291.184H714.676V304H711.676V295.552L704.62 304H701.86V291.184ZM730.711 297.664C730.711 297.872 730.695 298.168 730.663 298.552H720.607C720.783 299.496 721.239 300.248 721.975 300.808C722.727 301.352 723.655 301.624 724.759 301.624C726.167 301.624 727.327 301.16 728.239 300.232L729.847 302.08C729.271 302.768 728.543 303.288 727.663 303.64C726.783 303.992 725.791 304.168 724.687 304.168C723.279 304.168 722.039 303.888 720.967 303.328C719.895 302.768 719.063 301.992 718.471 301C717.895 299.992 717.607 298.856 717.607 297.592C717.607 296.344 717.887 295.224 718.447 294.232C719.023 293.224 719.815 292.44 720.823 291.88C721.831 291.32 722.967 291.04 724.231 291.04C725.479 291.04 726.591 291.32 727.567 291.88C728.559 292.424 729.327 293.2 729.871 294.208C730.431 295.2 730.711 296.352 730.711 297.664ZM724.231 293.44C723.271 293.44 722.455 293.728 721.783 294.304C721.127 294.864 720.727 295.616 720.583 296.56H727.855C727.727 295.632 727.335 294.88 726.679 294.304C726.023 293.728 725.207 293.44 724.231 293.44Z" fill="black"/>
<path d="M748.96 0.399999V13H746.62V7.6H740.104V13H737.764V0.399999H740.104V5.602H746.62V0.399999H748.96ZM760.846 10.084H754.546L753.304 13H750.892L756.562 0.399999H758.866L764.554 13H762.106L760.846 10.084ZM760.072 8.248L757.696 2.74L755.338 8.248H760.072ZM773.111 6.43C773.867 6.67 774.455 7.06 774.875 7.6C775.307 8.128 775.523 8.752 775.523 9.472C775.523 10.228 775.277 10.888 774.785 11.452C774.293 12.004 773.633 12.43 772.805 12.73C771.989 13.03 771.095 13.18 770.123 13.18C769.283 13.18 768.437 13.066 767.585 12.838C766.745 12.598 765.965 12.244 765.245 11.776L766.001 10.066C766.553 10.438 767.165 10.726 767.837 10.93C768.509 11.122 769.175 11.218 769.835 11.218C770.783 11.218 771.569 11.032 772.193 10.66C772.829 10.288 773.147 9.778 773.147 9.13C773.147 8.578 772.919 8.158 772.463 7.87C772.007 7.582 771.377 7.438 770.573 7.438H767.639V5.602H770.393C771.089 5.602 771.635 5.458 772.031 5.17C772.427 4.882 772.625 4.492 772.625 4C772.625 3.412 772.355 2.956 771.815 2.632C771.287 2.308 770.609 2.146 769.781 2.146C769.217 2.146 768.635 2.23 768.035 2.398C767.435 2.554 766.871 2.788 766.343 3.1L765.605 1.21C766.253 0.862 766.937 0.604 767.657 0.436C768.389 0.255999 769.115 0.165999 769.835 0.165999C770.771 0.165999 771.629 0.309999 772.409 0.598C773.201 0.886 773.831 1.3 774.299 1.84C774.767 2.368 775.001 2.992 775.001 3.712C775.001 4.336 774.833 4.882 774.497 5.35C774.161 5.818 773.699 6.178 773.111 6.43ZM786.528 10.084H780.228L778.986 13H776.574L782.244 0.399999H784.548L790.236 13H787.788L786.528 10.084ZM785.754 8.248L783.378 2.74L781.02 8.248H785.754ZM804.748 11.02V15.682H802.588V13H792.922V15.682H790.744L790.762 11.02H791.302C792.094 10.984 792.646 10.402 792.958 9.274C793.282 8.134 793.48 6.508 793.552 4.396L793.696 0.399999H802.93V11.02H804.748ZM795.604 4.612C795.544 6.244 795.412 7.606 795.208 8.698C795.004 9.778 794.68 10.552 794.236 11.02H800.626V2.38H795.694L795.604 4.612Z" fill="#898989"/>
<defs>
<filter id="filter0_d" x="0" y="256" width="254" height="254" filterUnits="userSpaceOnUse" color-interpolation-filters="sRGB">
<feFlood flood-opacity="0" result="BackgroundImageFix"/>
<feColorMatrix in="SourceAlpha" type="matrix" values="0 0 0 0 0 0 0 0 0 0 0 0 0 0 0 0 0 0 127 0"/>
<feMorphology radius="2" operator="dilate" in="SourceAlpha" result="effect1_dropShadow"/>
<feOffset dy="2"/>
<feGaussianBlur stdDeviation="5"/>
<feColorMatrix type="matrix" values="0 0 0 0 0.629167 0 0 0 0 0.629167 0 0 0 0 0.629167 0 0 0 0.25 0"/>
<feBlend mode="normal" in2="BackgroundImageFix" result="effect1_dropShadow"/>
<feBlend mode="normal" in="SourceGraphic" in2="effect1_dropShadow" result="shape"/>
</filter>
<filter id="filter1_d" x="274" y="256" width="254" height="254" filterUnits="userSpaceOnUse" color-interpolation-filters="sRGB">
<feFlood flood-opacity="0" result="BackgroundImageFix"/>
<feColorMatrix in="SourceAlpha" type="matrix" values="0 0 0 0 0 0 0 0 0 0 0 0 0 0 0 0 0 0 127 0"/>
<feMorphology radius="2" operator="dilate" in="SourceAlpha" result="effect1_dropShadow"/>
<feOffset dy="2"/>
<feGaussianBlur stdDeviation="5"/>
<feColorMatrix type="matrix" values="0 0 0 0 0.629167 0 0 0 0 0.629167 0 0 0 0 0.629167 0 0 0 0.25 0"/>
<feBlend mode="normal" in2="BackgroundImageFix" result="effect1_dropShadow"/>
<feBlend mode="normal" in="SourceGraphic" in2="effect1_dropShadow" result="shape"/>
</filter>
<filter id="filter2_d" x="548" y="256" width="254" height="254" filterUnits="userSpaceOnUse" color-interpolation-filters="sRGB">
<feFlood flood-opacity="0" result="BackgroundImageFix"/>
<feColorMatrix in="SourceAlpha" type="matrix" values="0 0 0 0 0 0 0 0 0 0 0 0 0 0 0 0 0 0 127 0"/>
<feMorphology radius="2" operator="dilate" in="SourceAlpha" result="effect1_dropShadow"/>
<feOffset dy="2"/>
<feGaussianBlur stdDeviation="5"/>
<feColorMatrix type="matrix" values="0 0 0 0 0.629167 0 0 0 0 0.629167 0 0 0 0 0.629167 0 0 0 0.25 0"/>
<feBlend mode="normal" in2="BackgroundImageFix" result="effect1_dropShadow"/>
<feBlend mode="normal" in="SourceGraphic" in2="effect1_dropShadow" result="shape"/>
</filter>
</defs>
</svg>
