<svg width="37" height="37" viewBox="0 0 37 37" fill="none" xmlns="http://www.w3.org/2000/svg">
<path d="M35.42 32.58L28.62 25.8C30.814 23.0049 32.0044 19.5533 32 16C32 12.8355 31.0616 9.74207 29.3035 7.11088C27.5454 4.4797 25.0466 2.42894 22.1229 1.21793C19.1993 0.0069325 15.9823 -0.309921 12.8786 0.307443C9.77487 0.924806 6.92394 2.44866 4.6863 4.6863C2.44866 6.92394 0.924806 9.77487 0.307443 12.8786C-0.309921 15.9823 0.0069325 19.1993 1.21793 22.1229C2.42894 25.0466 4.4797 27.5454 7.11088 29.3035C9.74207 31.0616 12.8355 32 16 32C19.5533 32.0044 23.0049 30.814 25.8 28.62L32.58 35.42C32.7659 35.6075 32.9871 35.7563 33.2309 35.8578C33.4746 35.9593 33.736 36.0116 34 36.0116C34.264 36.0116 34.5254 35.9593 34.7692 35.8578C35.0129 35.7563 35.2341 35.6075 35.42 35.42C35.6075 35.2341 35.7563 35.0129 35.8578 34.7692C35.9593 34.5254 36.0116 34.264 36.0116 34C36.0116 33.736 35.9593 33.4746 35.8578 33.2309C35.7563 32.9871 35.6075 32.7659 35.42 32.58ZM4.00001 16C4.00001 13.6266 4.70379 11.3066 6.02237 9.33317C7.34095 7.35978 9.21509 5.8217 11.4078 4.91345C13.6005 4.0052 16.0133 3.76756 18.3411 4.23058C20.6689 4.69361 22.8071 5.8365 24.4853 7.51473C26.1635 9.19296 27.3064 11.3312 27.7694 13.6589C28.2325 15.9867 27.9948 18.3995 27.0866 20.5922C26.1783 22.7849 24.6402 24.6591 22.6669 25.9776C20.6935 27.2962 18.3734 28 16 28C12.8174 28 9.76516 26.7357 7.51473 24.4853C5.26429 22.2349 4.00001 19.1826 4.00001 16Z" fill="#898989"/>
</svg>
